<?xml version="1.0" encoding="UTF-8"?>
<svg id="Layer_2" data-name="Layer 2" xmlns="http://www.w3.org/2000/svg" xmlns:xlink="http://www.w3.org/1999/xlink" viewBox="0 0 87.54 161.22">
  <defs>
    <style>
      .cls-1 {
        fill: url(#radial-gradient-7);
      }

      .cls-2 {
        fill: #fff;
      }

      .cls-3 {
        fill: url(#radial-gradient-8);
      }

      .cls-4 {
        fill: url(#radial-gradient-5);
      }

      .cls-5 {
        fill: url(#radial-gradient-4);
      }

      .cls-6 {
        fill: #c61a44;
      }

      .cls-7 {
        fill: url(#radial-gradient-6);
      }

      .cls-8 {
        fill: url(#radial-gradient);
      }

      .cls-9 {
        fill: #e81840;
      }

      .cls-10 {
        clip-path: url(#clippath);
      }

      .cls-11 {
        fill: url(#radial-gradient-2);
      }

      .cls-12 {
        fill: none;
      }

      .cls-13 {
        fill: url(#radial-gradient-3);
      }

      .cls-14 {
        fill: #f7f7f7;
      }

      .cls-15 {
        fill: url(#radial-gradient-9);
      }
    </style>
    <radialGradient id="radial-gradient" cx="260.43" cy="130.22" fx="245.01" fy="148.55" r="23.96" gradientTransform="translate(335.58) rotate(-180) scale(1 -1)" gradientUnits="userSpaceOnUse">
      <stop offset="0" stop-color="#ffddca"/>
      <stop offset="1" stop-color="#ffc799"/>
    </radialGradient>
    <radialGradient id="radial-gradient-2" cx="302.13" cy="126.46" fx="287.06" fy="144.03" r="23.14" xlink:href="#radial-gradient"/>
    <radialGradient id="radial-gradient-3" cx="288.12" cy="94.57" fx="288.12" fy="94.57" r="19.52" gradientTransform="translate(-85.77 373.94) rotate(-45) scale(1 -1)" xlink:href="#radial-gradient"/>
    <radialGradient id="radial-gradient-4" cx="260.43" cy="93.01" fx="260.43" fy="93.01" r="15.81" gradientTransform="translate(-185.29 186.02) scale(1 -1)" xlink:href="#radial-gradient"/>
    <radialGradient id="radial-gradient-5" cx="294.19" cy="13.35" fx="294.19" fy="13.35" r="21.92" gradientTransform="translate(313.52 -42.82) rotate(162.35) scale(1 -1)" xlink:href="#radial-gradient"/>
    <clipPath id="clippath">
      <path class="cls-12" d="M17.27,58.86c4.37-2.64,6.86-9.69,6.06-17.15-.5-4.65-2.16-8.87-4.67-11.89-2.37-2.85-5.21-4.25-7.99-3.95-1.03,.11-2.03,.45-2.96,1.02C3.34,29.52,.85,36.57,1.65,44.03c1,9.38,6.69,16.48,12.66,15.84,1.03-.11,2.03-.45,2.96-1.02Z"/>
    </clipPath>
    <radialGradient id="radial-gradient-6" cx="319.33" cy="131.11" fx="332.01" fy="120.99" r="16.23" gradientTransform="translate(364.41 70.03) rotate(-158.42) scale(1 -1)" xlink:href="#radial-gradient"/>
    <radialGradient id="radial-gradient-7" cx="291.51" cy="18.6" fx="307.69" fy="4.83" r="21.24" gradientTransform="translate(-247.45 37.2) scale(1 -1)" xlink:href="#radial-gradient"/>
    <radialGradient id="radial-gradient-8" cx="285.1" cy="105.78" fx="297.71" fy="123.71" r="21.92" gradientTransform="translate(345.05 15.78) rotate(-169.22) scale(1 -1)" xlink:href="#radial-gradient"/>
    <radialGradient id="radial-gradient-9" cx="329.81" cy="83.77" fx="317.54" fy="94.38" r="16.23" gradientTransform="translate(350.97 -.43) rotate(-177.73) scale(1 -1)" xlink:href="#radial-gradient"/>
  </defs>
  <g id="Layer_1-2" data-name="Layer 1">
    <path class="cls-9" d="M62.74,161.22v-6.2l1.31-.65c7.29-3.65,15.34-5.55,23.49-5.55h0v12.4h-24.8Z"/>
    <path class="cls-8" d="M87.54,148.82l-24.8-37.2h12.35c6.88,0,12.45,5.58,12.45,12.45v24.75Z"/>
    <path class="cls-11" d="M25.54,148.82v-44.71s10.28,6.85,10.28,6.85c5.72,3.81,7.27,11.55,3.45,17.27l-13.73,20.6Z"/>
    <path class="cls-13" d="M59.86,81.11h0v37.2h-24.8v-12.4c0-13.69,11.11-24.8,24.8-24.8Z" transform="translate(10.51 203.77) rotate(-135)"/>
    <path class="cls-5" d="M87.54,74.41h0v37.2h-24.8v-12.4c0-13.69,11.11-24.8,24.8-24.8Z" transform="translate(150.29 186.02) rotate(-180)"/>
    <path class="cls-9" d="M13.14,161.22v-6.2l1.31-.65c7.29-3.65,15.34-5.55,23.49-5.55h0v12.4H13.14Z"/>
    <polygon class="cls-6" points="87.54 74.41 87.54 107.27 50.34 99.21 62.74 74.41 87.54 74.41"/>
    <polygon class="cls-9" points="34.6 95.03 50.34 74.41 87.54 74.41 58.14 113.59 34.6 95.03"/>
    <path class="cls-4" d="M35.62,33.6l-8.59,54.79,16.1-20.12c7.39-9.24,9.68-21.57,6.09-32.85l-1.78-5.58-11.82,3.76Z"/>
    <polygon class="cls-2" points="35.62 33.6 31.32 60.99 54.96 53.47 59.11 26.12 35.62 33.6"/>
    <path class="cls-2" d="M17.89,87.32c.48-.29,.78-.84,.72-1.43l-2.6-25.94c-.08-.82-.82-1.43-1.64-1.34-.83,.08-1.43,.82-1.34,1.64l2.6,25.94c.08,.82,.82,1.43,1.64,1.34,.23-.02,.44-.1,.63-.21Z"/>
    <g class="cls-10">
      <g>
        <rect class="cls-12" x="-5.17" y="43.11" width="6.2" height="6.2" transform="translate(-24.18 5.58) rotate(-31.12)"/>
        <rect class="cls-2" x="-3.09" y="42.53" width="3.1" height="3.1" transform="translate(-23 5.55) rotate(-31.12)"/>
      </g>
      <g>
        <rect class="cls-12" x="-1.96" y="48.42" width="6.2" height="6.2" transform="translate(-26.46 8) rotate(-31.12)"/>
        <rect class="cls-2" x=".11" y="47.84" width="3.1" height="3.1" transform="translate(-25.29 7.97) rotate(-31.12)"/>
        <rect class="cls-2" x="-.94" y="52.09" width="3.1" height="3.1" transform="translate(-27.64 8.04) rotate(-31.12)"/>
      </g>
      <g>
        <rect class="cls-12" x="1.24" y="53.72" width="6.2" height="6.2" transform="translate(-28.74 10.42) rotate(-31.12)"/>
        <rect class="cls-2" x="3.32" y="53.15" width="3.1" height="3.1" transform="translate(-27.57 10.39) rotate(-31.12)"/>
        <rect class="cls-2" x="2.27" y="57.4" width="3.1" height="3.1" transform="translate(-29.92 10.46) rotate(-31.12)"/>
      </g>
      <g>
        <rect class="cls-12" x="4.45" y="59.03" width="6.2" height="6.2" transform="translate(-31.03 12.84) rotate(-31.12)"/>
        <rect class="cls-2" x="6.52" y="58.45" width="3.1" height="3.1" transform="translate(-29.85 12.81) rotate(-31.12)"/>
        <rect class="cls-2" x="5.47" y="62.71" width="3.1" height="3.1" transform="translate(-32.2 12.88) rotate(-31.12)"/>
      </g>
      <rect class="cls-12" x="-6.27" y="29.29" width="6.2" height="6.2" transform="translate(-17.19 3.02) rotate(-31.12)"/>
      <g>
        <rect class="cls-12" x="-3.06" y="34.59" width="6.2" height="6.2" transform="translate(-19.48 5.44) rotate(-31.12)"/>
        <rect class="cls-2" x="-.99" y="34.02" width="3.1" height="3.1" transform="translate(-18.3 5.41) rotate(-31.12)"/>
        <rect class="cls-2" x="-2.04" y="38.27" width="3.1" height="3.1" transform="translate(-20.65 5.48) rotate(-31.12)"/>
      </g>
      <g>
        <rect class="cls-12" x=".14" y="39.9" width="6.2" height="6.2" transform="translate(-21.76 7.86) rotate(-31.12)"/>
        <rect class="cls-2" x="2.22" y="39.32" width="3.1" height="3.1" transform="translate(-20.58 7.83) rotate(-31.12)"/>
        <rect class="cls-2" x="1.17" y="43.58" width="3.1" height="3.1" transform="translate(-22.93 7.9) rotate(-31.12)"/>
      </g>
      <g>
        <rect class="cls-12" x="3.35" y="45.21" width="6.2" height="6.2" transform="translate(-24.04 10.28) rotate(-31.12)"/>
        <rect class="cls-2" x="5.42" y="44.63" width="3.1" height="3.1" transform="translate(-22.86 10.25) rotate(-31.12)"/>
        <rect class="cls-2" x="4.37" y="48.89" width="3.1" height="3.1" transform="translate(-25.22 10.32) rotate(-31.12)"/>
      </g>
      <g>
        <rect class="cls-12" x="6.55" y="50.52" width="6.2" height="6.2" transform="translate(-26.32 12.7) rotate(-31.12)"/>
        <rect class="cls-2" x="8.63" y="49.94" width="3.1" height="3.1" transform="translate(-25.15 12.67) rotate(-31.12)"/>
        <rect class="cls-2" x="7.58" y="54.2" width="3.1" height="3.1" transform="translate(-27.5 12.74) rotate(-31.12)"/>
      </g>
      <g>
        <rect class="cls-12" x="9.76" y="55.83" width="6.2" height="6.2" transform="translate(-28.61 15.12) rotate(-31.12)"/>
        <rect class="cls-2" x="11.83" y="55.25" width="3.1" height="3.1" transform="translate(-27.43 15.09) rotate(-31.12)"/>
        <rect class="cls-2" x="10.78" y="59.51" width="3.1" height="3.1" transform="translate(-29.78 15.16) rotate(-31.12)"/>
      </g>
      <g>
        <rect class="cls-12" x="-.96" y="26.08" width="6.2" height="6.2" transform="translate(-14.77 5.31) rotate(-31.12)"/>
        <rect class="cls-2" x="1.12" y="25.5" width="3.1" height="3.1" transform="translate(-13.6 5.27) rotate(-31.12)"/>
        <rect class="cls-2" x=".07" y="29.76" width="3.1" height="3.1" transform="translate(-15.95 5.34) rotate(-31.12)"/>
      </g>
      <g>
        <rect class="cls-12" x="2.25" y="31.39" width="6.2" height="6.2" transform="translate(-17.06 7.73) rotate(-31.12)"/>
        <rect class="cls-2" x="4.32" y="30.81" width="3.1" height="3.1" transform="translate(-15.88 7.69) rotate(-31.12)"/>
        <rect class="cls-2" x="3.27" y="35.07" width="3.1" height="3.1" transform="translate(-18.23 7.76) rotate(-31.12)"/>
      </g>
      <g>
        <rect class="cls-12" x="5.45" y="36.7" width="6.2" height="6.2" transform="translate(-19.34 10.15) rotate(-31.12)"/>
        <rect class="cls-2" x="7.53" y="36.12" width="3.1" height="3.1" transform="translate(-18.16 10.11) rotate(-31.12)"/>
        <rect class="cls-2" x="6.47" y="40.38" width="3.1" height="3.1" transform="translate(-20.51 10.18) rotate(-31.12)"/>
      </g>
      <g>
        <rect class="cls-12" x="8.66" y="42.01" width="6.2" height="6.2" transform="translate(-21.62 12.57) rotate(-31.12)"/>
        <rect class="cls-2" x="10.73" y="41.43" width="3.1" height="3.1" transform="translate(-20.44 12.53) rotate(-31.12)"/>
        <rect class="cls-2" x="9.68" y="45.68" width="3.1" height="3.1" transform="translate(-22.8 12.6) rotate(-31.12)"/>
      </g>
      <g>
        <rect class="cls-12" x="11.86" y="47.31" width="6.2" height="6.2" transform="translate(-23.9 14.99) rotate(-31.12)"/>
        <rect class="cls-2" x="13.94" y="46.74" width="3.1" height="3.1" transform="translate(-22.73 14.95) rotate(-31.12)"/>
        <rect class="cls-2" x="12.88" y="50.99" width="3.1" height="3.1" transform="translate(-25.08 15.02) rotate(-31.12)"/>
      </g>
      <g>
        <rect class="cls-12" x="15.06" y="52.62" width="6.2" height="6.2" transform="translate(-26.18 17.41) rotate(-31.12)"/>
        <rect class="cls-2" x="17.14" y="52.04" width="3.1" height="3.1" transform="translate(-25.01 17.37) rotate(-31.12)"/>
        <rect class="cls-2" x="16.09" y="56.3" width="3.1" height="3.1" transform="translate(-27.36 17.44) rotate(-31.12)"/>
      </g>
      <g>
        <rect class="cls-12" x="4.35" y="22.88" width="6.2" height="6.2" transform="translate(-12.35 7.59) rotate(-31.12)"/>
        <rect class="cls-2" x="6.43" y="22.3" width="3.1" height="3.1" transform="translate(-11.18 7.55) rotate(-31.12)"/>
        <rect class="cls-2" x="5.37" y="26.55" width="3.1" height="3.1" transform="translate(-13.53 7.62) rotate(-31.12)"/>
      </g>
      <g>
        <rect class="cls-12" x="7.55" y="28.18" width="6.2" height="6.2" transform="translate(-14.64 10.01) rotate(-31.12)"/>
        <rect class="cls-2" x="9.63" y="27.61" width="3.1" height="3.1" transform="translate(-13.46 9.97) rotate(-31.12)"/>
        <rect class="cls-2" x="8.58" y="31.86" width="3.1" height="3.1" transform="translate(-15.81 10.04) rotate(-31.12)"/>
      </g>
      <g>
        <rect class="cls-12" x="10.76" y="33.49" width="6.2" height="6.2" transform="translate(-16.92 12.43) rotate(-31.12)"/>
        <rect class="cls-2" x="12.84" y="32.91" width="3.1" height="3.1" transform="translate(-15.74 12.39) rotate(-31.12)"/>
        <rect class="cls-2" x="11.78" y="37.17" width="3.1" height="3.1" transform="translate(-18.09 12.46) rotate(-31.12)"/>
      </g>
      <g>
        <rect class="cls-12" x="13.96" y="38.8" width="6.2" height="6.2" transform="translate(-19.2 14.85) rotate(-31.12)"/>
        <rect class="cls-2" x="16.04" y="38.22" width="3.1" height="3.1" transform="translate(-18.02 14.81) rotate(-31.12)"/>
        <rect class="cls-2" x="14.99" y="42.48" width="3.1" height="3.1" transform="translate(-20.38 14.88) rotate(-31.12)"/>
      </g>
      <g>
        <rect class="cls-12" x="17.17" y="44.11" width="6.2" height="6.2" transform="translate(-21.48 17.27) rotate(-31.12)"/>
        <rect class="cls-2" x="19.24" y="43.53" width="3.1" height="3.1" transform="translate(-20.31 17.23) rotate(-31.12)"/>
        <rect class="cls-2" x="18.19" y="47.79" width="3.1" height="3.1" transform="translate(-22.66 17.3) rotate(-31.12)"/>
      </g>
      <g>
        <rect class="cls-12" x="20.37" y="49.42" width="6.2" height="6.2" transform="translate(-23.76 19.69) rotate(-31.12)"/>
        <rect class="cls-2" x="22.45" y="48.84" width="3.1" height="3.1" transform="translate(-22.59 19.66) rotate(-31.12)"/>
        <rect class="cls-2" x="21.4" y="53.1" width="3.1" height="3.1" transform="translate(-24.94 19.72) rotate(-31.12)"/>
      </g>
      <g>
        <rect class="cls-12" x="9.66" y="19.67" width="6.2" height="6.2" transform="translate(-9.93 9.87) rotate(-31.12)"/>
        <rect class="cls-2" x="11.73" y="19.09" width="3.1" height="3.1" transform="translate(-8.76 9.84) rotate(-31.12)"/>
        <rect class="cls-2" x="10.68" y="23.35" width="3.1" height="3.1" transform="translate(-11.11 9.91) rotate(-31.12)"/>
      </g>
      <g>
        <rect class="cls-12" x="12.86" y="24.98" width="6.2" height="6.2" transform="translate(-12.22 12.29) rotate(-31.12)"/>
        <rect class="cls-2" x="14.94" y="24.4" width="3.1" height="3.1" transform="translate(-11.04 12.26) rotate(-31.12)"/>
        <rect class="cls-2" x="13.89" y="28.66" width="3.1" height="3.1" transform="translate(-13.39 12.33) rotate(-31.12)"/>
      </g>
      <g>
        <rect class="cls-12" x="16.07" y="30.29" width="6.2" height="6.2" transform="translate(-14.5 14.71) rotate(-31.12)"/>
        <rect class="cls-2" x="18.14" y="29.71" width="3.1" height="3.1" transform="translate(-13.32 14.68) rotate(-31.12)"/>
        <rect class="cls-2" x="17.09" y="33.97" width="3.1" height="3.1" transform="translate(-15.67 14.75) rotate(-31.12)"/>
      </g>
      <g>
        <rect class="cls-12" x="19.27" y="35.6" width="6.2" height="6.2" transform="translate(-16.78 17.13) rotate(-31.12)"/>
        <rect class="cls-2" x="21.35" y="35.02" width="3.1" height="3.1" transform="translate(-15.6 17.1) rotate(-31.12)"/>
        <rect class="cls-2" x="20.3" y="39.27" width="3.1" height="3.1" transform="translate(-17.96 17.17) rotate(-31.12)"/>
      </g>
      <g>
        <rect class="cls-12" x="22.48" y="40.9" width="6.2" height="6.2" transform="translate(-19.06 19.55) rotate(-31.12)"/>
        <rect class="cls-2" x="24.55" y="40.33" width="3.1" height="3.1" transform="translate(-17.89 19.52) rotate(-31.12)"/>
        <rect class="cls-2" x="23.5" y="44.58" width="3.1" height="3.1" transform="translate(-20.24 19.59) rotate(-31.12)"/>
      </g>
      <g>
        <rect class="cls-12" x="25.68" y="46.21" width="6.2" height="6.2" transform="translate(-21.34 21.97) rotate(-31.12)"/>
        <rect class="cls-2" x="27.76" y="45.64" width="3.1" height="3.1" transform="translate(-20.17 21.94) rotate(-31.12)"/>
        <rect class="cls-2" x="26.71" y="49.89" width="3.1" height="3.1" transform="translate(-22.52 22.01) rotate(-31.12)"/>
      </g>
    </g>
    <path class="cls-9" d="M6.93,25.6l1.55,2.57c-3.88,2.34-6.08,8.8-5.34,15.71,.47,4.36,2.01,8.3,4.34,11.09,1.18,1.42,3.62,3.75,6.68,3.42,.81-.09,1.6-.36,2.35-.81,3.88-2.34,6.08-8.8,5.34-15.71-.9-8.41-5.94-15.05-11.01-14.51-.81,.09-1.6,.36-2.35,.81l-1.55-2.57m0,0c1.1-.66,2.3-1.09,3.58-1.22,6.81-.73,13.22,6.96,14.31,17.17,.89,8.3-2,15.71-6.77,18.59-1.1,.66-2.3,1.09-3.58,1.22-6.81,.73-13.22-6.96-14.31-17.17-.89-8.3,2-15.72,6.77-18.59h0Z"/>
    <path class="cls-7" d="M27.07,88.39l-18.5-20.66h0c2.1-5.3,9.03-6.54,12.84-2.29l1.95,2.18c5.07,5.66,6.51,13.7,3.71,20.77h0Z"/>
    <path class="cls-14" d="M87.54,74.41l-9.36-37.43c-1.79-7.16-8.22-12.18-15.6-12.18h-24.65v24.8h0l12.4,24.8h37.2Z"/>
    <path class="cls-1" d="M44.06,0h0C51.76,0,58.01,6.25,58.01,13.95v23.25H30.11V13.95C30.11,6.25,36.36,0,44.06,0Z" transform="translate(88.12 37.2) rotate(-180)"/>
    <path d="M58.01,0H30.11V10.59c6.79-4.41,21.54-3.89,27.9,0V0Z"/>
    <path class="cls-3" d="M63.75,36.62L30.1,80.71l23.74-10.03c10.9-4.61,18.78-14.36,21-25.99l1.1-5.75-12.18-2.32Z"/>
    <path class="cls-15" d="M30.09,80.71l-24.29-13.38h0c.23-5.69,6.36-9.16,11.36-6.41l2.56,1.41c6.66,3.67,10.67,10.78,10.37,18.37h0Z"/>
    <path class="cls-2" d="M52.63,51.2l27.4-6.83-1.84-7.38c-1.79-7.16-8.22-12.18-15.6-12.18h-1.73l-8.23,26.39Z"/>
  </g>
</svg>