<?xml version="1.0" encoding="UTF-8"?>
<svg id="Layer_2" data-name="Layer 2" xmlns="http://www.w3.org/2000/svg" xmlns:xlink="http://www.w3.org/1999/xlink" viewBox="0 0 99.21 161.22">
  <defs>
    <style>
      .cls-1 {
        fill: url(#radial-gradient-7);
      }

      .cls-2 {
        fill: #fff;
      }

      .cls-3 {
        fill: url(#radial-gradient-5);
      }

      .cls-4 {
        fill: url(#radial-gradient-4);
      }

      .cls-5 {
        fill: url(#radial-gradient-6);
      }

      .cls-6 {
        fill: #303ec4;
      }

      .cls-7 {
        fill: url(#radial-gradient);
      }

      .cls-8 {
        fill: #2e38ed;
      }

      .cls-9 {
        clip-path: url(#clippath);
      }

      .cls-10 {
        fill: url(#radial-gradient-2);
      }

      .cls-11 {
        fill: none;
      }

      .cls-12 {
        fill: url(#radial-gradient-3);
      }

      .cls-13 {
        fill: #f7f7f7;
      }
    </style>
    <radialGradient id="radial-gradient" cx="43.48" cy="18.6" fx="59.66" fy="4.83" r="21.24" gradientTransform="translate(12.25 37.2) scale(1 -1)" gradientUnits="userSpaceOnUse">
      <stop offset="0" stop-color="#ffddca"/>
      <stop offset="1" stop-color="#ffc799"/>
    </radialGradient>
    <radialGradient id="radial-gradient-2" cx="12.4" cy="130.22" fx="-3.02" fy="148.55" r="23.96" gradientTransform="translate(99.21) rotate(-180) scale(1 -1)" xlink:href="#radial-gradient"/>
    <radialGradient id="radial-gradient-3" cx="54.1" cy="126.46" fx="39.03" fy="144.03" r="23.14" gradientTransform="translate(99.21) rotate(-180) scale(1 -1)" xlink:href="#radial-gradient"/>
    <radialGradient id="radial-gradient-4" cx="40.08" cy="94.57" fx="40.08" fy="94.57" r="19.52" gradientTransform="translate(101.29 198.56) rotate(-45) scale(1 -1)" xlink:href="#radial-gradient"/>
    <radialGradient id="radial-gradient-5" cx="12.4" cy="93.01" fx="12.4" fy="93.01" r="15.81" gradientTransform="translate(74.41 186.02) scale(1 -1)" xlink:href="#radial-gradient"/>
    <radialGradient id="radial-gradient-6" cx="55.81" cy="49.61" fx="55.81" fy="49.61" r="21.92" gradientTransform="translate(99.21) rotate(-180) scale(1 -1)" xlink:href="#radial-gradient"/>
    <clipPath id="clippath">
      <path class="cls-11" d="M19.32,48.73c5.1,0,10.88-4.75,14.05-11.55,1.98-4.24,2.74-8.71,2.14-12.6-.56-3.66-2.26-6.33-4.8-7.51-.94-.44-1.97-.66-3.06-.66-5.1,0-10.88,4.75-14.05,11.55-3.99,8.55-2.8,17.57,2.65,20.11,.94,.44,1.97,.66,3.06,.66Z"/>
    </clipPath>
    <radialGradient id="radial-gradient-7" cx="86.81" cy="64.37" fx="99.49" fy="54.24" r="16.23" gradientTransform="translate(99.21) rotate(-180) scale(1 -1)" xlink:href="#radial-gradient"/>
  </defs>
  <g id="Layer_1-2" data-name="Layer 1">
    <path class="cls-7" d="M55.73,0h0C63.43,0,69.68,6.25,69.68,13.95v23.25h-27.9V13.95C41.78,6.25,48.03,0,55.73,0Z" transform="translate(111.46 37.2) rotate(180)"/>
    <path class="cls-8" d="M74.41,161.22v-6.2l1.31-.65c7.29-3.65,15.34-5.55,23.49-5.55h0v12.4h-24.8Z"/>
    <path class="cls-10" d="M99.21,148.82l-24.8-37.2h12.35c6.88,0,12.45,5.58,12.45,12.45v24.75Z"/>
    <path class="cls-12" d="M37.2,148.82v-44.71s10.28,6.85,10.28,6.85c5.72,3.81,7.27,11.55,3.45,17.27l-13.73,20.6Z"/>
    <path class="cls-4" d="M71.53,81.11h0v37.2h-24.8v-12.4c0-13.69,11.11-24.8,24.8-24.8Z" transform="translate(30.43 212.02) rotate(-135)"/>
    <path class="cls-3" d="M99.21,74.41h0v37.2h-24.8v-12.4c0-13.69,11.11-24.8,24.8-24.8Z" transform="translate(173.62 186.02) rotate(-180)"/>
    <path class="cls-8" d="M24.8,161.22v-6.2l1.31-.65c7.29-3.65,15.34-5.55,23.49-5.55h0v12.4H24.8Z"/>
    <polygon class="cls-6" points="99.21 74.41 99.21 107.27 62.01 99.21 74.41 74.41 99.21 74.41"/>
    <polygon class="cls-8" points="46.27 95.03 62.01 74.41 99.21 74.41 69.81 113.59 46.27 95.03"/>
    <path class="cls-13" d="M99.21,74.41l-9.36-37.43c-1.79-7.16-8.22-12.18-15.6-12.18h-24.65l-12.4,24.8h12.4l12.4,24.8h37.2Z"/>
    <path class="cls-5" d="M49.61,24.8l-24.8,49.61,21.44-14.29c9.85-6.57,15.76-17.62,15.76-29.46v-5.86h-12.4Z"/>
    <polygon class="cls-2" points="49.61 24.8 37.2 49.61 62.01 49.61 74.26 24.8 49.61 24.8"/>
    <path class="cls-2" d="M5.14,73.41c.56,0,1.1-.32,1.36-.86l11.18-23.55c.36-.75,.04-1.64-.71-2-.75-.35-1.64-.04-2,.71L3.79,71.27c-.36,.75-.04,1.64,.71,2,.21,.1,.43,.15,.64,.15Z"/>
    <g class="cls-9">
      <g>
        <rect class="cls-11" x="6.2" y="12.4" width="6.2" height="6.2"/>
        <rect class="cls-2" x="9.3" y="12.4" width="3.1" height="3.1"/>
        <rect class="cls-2" x="6.2" y="15.5" width="3.1" height="3.1"/>
      </g>
      <g>
        <rect class="cls-11" x="6.2" y="18.6" width="6.2" height="6.2"/>
        <rect class="cls-2" x="9.3" y="18.6" width="3.1" height="3.1"/>
        <rect class="cls-2" x="6.2" y="21.7" width="3.1" height="3.1"/>
      </g>
      <g>
        <rect class="cls-11" x="6.2" y="24.8" width="6.2" height="6.2"/>
        <rect class="cls-2" x="9.3" y="24.8" width="3.1" height="3.1"/>
        <rect class="cls-2" x="6.2" y="27.9" width="3.1" height="3.1"/>
      </g>
      <g>
        <rect class="cls-11" x="6.2" y="31" width="6.2" height="6.2"/>
        <rect class="cls-2" x="9.3" y="31" width="3.1" height="3.1"/>
        <rect class="cls-2" x="6.2" y="34.1" width="3.1" height="3.1"/>
      </g>
      <g>
        <rect class="cls-11" x="6.2" y="37.2" width="6.2" height="6.2"/>
        <rect class="cls-2" x="9.3" y="37.2" width="3.1" height="3.1"/>
        <rect class="cls-2" x="6.2" y="40.31" width="3.1" height="3.1"/>
      </g>
      <g>
        <rect class="cls-11" x="6.2" y="43.41" width="6.2" height="6.2"/>
        <rect class="cls-2" x="9.3" y="43.41" width="3.1" height="3.1"/>
        <rect class="cls-2" x="6.2" y="46.51" width="3.1" height="3.1"/>
      </g>
      <g>
        <rect class="cls-11" x="12.4" y="12.4" width="6.2" height="6.2"/>
        <rect class="cls-2" x="15.5" y="12.4" width="3.1" height="3.1"/>
        <rect class="cls-2" x="12.4" y="15.5" width="3.1" height="3.1"/>
      </g>
      <g>
        <rect class="cls-11" x="12.4" y="18.6" width="6.2" height="6.2"/>
        <rect class="cls-2" x="15.5" y="18.6" width="3.1" height="3.1"/>
        <rect class="cls-2" x="12.4" y="21.7" width="3.1" height="3.1"/>
      </g>
      <g>
        <rect class="cls-11" x="12.4" y="24.8" width="6.2" height="6.2"/>
        <rect class="cls-2" x="15.5" y="24.8" width="3.1" height="3.1"/>
        <rect class="cls-2" x="12.4" y="27.9" width="3.1" height="3.1"/>
      </g>
      <g>
        <rect class="cls-11" x="12.4" y="31" width="6.2" height="6.2"/>
        <rect class="cls-2" x="15.5" y="31" width="3.1" height="3.1"/>
        <rect class="cls-2" x="12.4" y="34.1" width="3.1" height="3.1"/>
      </g>
      <g>
        <rect class="cls-11" x="12.4" y="37.2" width="6.2" height="6.2"/>
        <rect class="cls-2" x="15.5" y="37.2" width="3.1" height="3.1"/>
        <rect class="cls-2" x="12.4" y="40.31" width="3.1" height="3.1"/>
      </g>
      <g>
        <rect class="cls-11" x="12.4" y="43.41" width="6.2" height="6.2"/>
        <rect class="cls-2" x="15.5" y="43.41" width="3.1" height="3.1"/>
        <rect class="cls-2" x="12.4" y="46.51" width="3.1" height="3.1"/>
      </g>
      <g>
        <rect class="cls-11" x="18.6" y="12.4" width="6.2" height="6.2"/>
        <rect class="cls-2" x="21.7" y="12.4" width="3.1" height="3.1"/>
        <rect class="cls-2" x="18.6" y="15.5" width="3.1" height="3.1"/>
      </g>
      <g>
        <rect class="cls-11" x="18.6" y="18.6" width="6.2" height="6.2"/>
        <rect class="cls-2" x="21.7" y="18.6" width="3.1" height="3.1"/>
        <rect class="cls-2" x="18.6" y="21.7" width="3.1" height="3.1"/>
      </g>
      <g>
        <rect class="cls-11" x="18.6" y="24.8" width="6.2" height="6.2"/>
        <rect class="cls-2" x="21.7" y="24.8" width="3.1" height="3.1"/>
        <rect class="cls-2" x="18.6" y="27.9" width="3.1" height="3.1"/>
      </g>
      <g>
        <rect class="cls-11" x="18.6" y="31" width="6.2" height="6.2"/>
        <rect class="cls-2" x="21.7" y="31" width="3.1" height="3.1"/>
        <rect class="cls-2" x="18.6" y="34.1" width="3.1" height="3.1"/>
      </g>
      <g>
        <rect class="cls-11" x="18.6" y="37.2" width="6.2" height="6.2"/>
        <rect class="cls-2" x="21.7" y="37.2" width="3.1" height="3.1"/>
        <rect class="cls-2" x="18.6" y="40.31" width="3.1" height="3.1"/>
      </g>
      <g>
        <rect class="cls-11" x="18.6" y="43.41" width="6.2" height="6.2"/>
        <rect class="cls-2" x="21.7" y="43.41" width="3.1" height="3.1"/>
        <rect class="cls-2" x="18.6" y="46.51" width="3.1" height="3.1"/>
      </g>
      <g>
        <rect class="cls-11" x="24.8" y="12.4" width="6.2" height="6.2"/>
        <rect class="cls-2" x="27.9" y="12.4" width="3.1" height="3.1"/>
        <rect class="cls-2" x="24.8" y="15.5" width="3.1" height="3.1"/>
      </g>
      <g>
        <rect class="cls-11" x="24.8" y="18.6" width="6.2" height="6.2"/>
        <rect class="cls-2" x="27.9" y="18.6" width="3.1" height="3.1"/>
        <rect class="cls-2" x="24.8" y="21.7" width="3.1" height="3.1"/>
      </g>
      <g>
        <rect class="cls-11" x="24.8" y="24.8" width="6.2" height="6.2"/>
        <rect class="cls-2" x="27.9" y="24.8" width="3.1" height="3.1"/>
        <rect class="cls-2" x="24.8" y="27.9" width="3.1" height="3.1"/>
      </g>
      <g>
        <rect class="cls-11" x="24.8" y="31" width="6.2" height="6.2"/>
        <rect class="cls-2" x="27.9" y="31" width="3.1" height="3.1"/>
        <rect class="cls-2" x="24.8" y="34.1" width="3.1" height="3.1"/>
      </g>
      <g>
        <rect class="cls-11" x="24.8" y="37.2" width="6.2" height="6.2"/>
        <rect class="cls-2" x="27.9" y="37.2" width="3.1" height="3.1"/>
        <rect class="cls-2" x="24.8" y="40.31" width="3.1" height="3.1"/>
      </g>
      <g>
        <rect class="cls-11" x="24.8" y="43.41" width="6.2" height="6.2"/>
        <rect class="cls-2" x="27.9" y="43.41" width="3.1" height="3.1"/>
        <rect class="cls-2" x="24.8" y="46.51" width="3.1" height="3.1"/>
      </g>
      <g>
        <rect class="cls-11" x="31" y="12.4" width="6.2" height="6.2"/>
        <rect class="cls-2" x="34.1" y="12.4" width="3.1" height="3.1"/>
        <rect class="cls-2" x="31" y="15.5" width="3.1" height="3.1"/>
      </g>
      <g>
        <rect class="cls-11" x="31" y="18.6" width="6.2" height="6.2"/>
        <rect class="cls-2" x="34.1" y="18.6" width="3.1" height="3.1"/>
        <rect class="cls-2" x="31" y="21.7" width="3.1" height="3.1"/>
      </g>
      <g>
        <rect class="cls-11" x="31" y="24.8" width="6.2" height="6.2"/>
        <rect class="cls-2" x="34.1" y="24.8" width="3.1" height="3.1"/>
        <rect class="cls-2" x="31" y="27.9" width="3.1" height="3.1"/>
      </g>
      <g>
        <rect class="cls-11" x="31" y="31" width="6.2" height="6.2"/>
        <rect class="cls-2" x="34.1" y="31" width="3.1" height="3.1"/>
        <rect class="cls-2" x="31" y="34.1" width="3.1" height="3.1"/>
      </g>
      <g>
        <rect class="cls-11" x="31" y="37.2" width="6.2" height="6.2"/>
        <rect class="cls-2" x="34.1" y="37.2" width="3.1" height="3.1"/>
        <rect class="cls-2" x="31" y="40.31" width="3.1" height="3.1"/>
      </g>
      <g>
        <rect class="cls-11" x="31" y="43.41" width="6.2" height="6.2"/>
        <rect class="cls-2" x="34.1" y="43.41" width="3.1" height="3.1"/>
        <rect class="cls-2" x="31" y="46.51" width="3.1" height="3.1"/>
      </g>
    </g>
    <path class="cls-8" d="M27.65,14.91v3c-4.54,0-9.75,4.39-12.69,10.69-1.85,3.97-2.57,8.14-2.02,11.74,.28,1.82,1.16,5.08,3.95,6.38,.74,.34,1.56,.52,2.43,.52,4.54,0,9.75-4.39,12.69-10.69,3.57-7.66,2.69-15.96-1.93-18.11-.74-.34-1.56-.52-2.43-.52v-3m0,0c1.28,0,2.53,.26,3.69,.8,6.21,2.89,7.72,12.79,3.38,22.1-3.53,7.57-9.84,12.42-15.41,12.42-1.28,0-2.53-.26-3.69-.8-6.21-2.89-7.72-12.79-3.38-22.1,3.53-7.57,9.84-12.42,15.41-12.42h0Z"/>
    <path d="M41.78,0h27.9V17.55s-9.47,1.09-13.38-4.08-10.99-7.52-14.53-7.59V0Z"/>
    <path class="cls-1" d="M24.8,74.41L0,62.01H0c0-5.7,6-9.4,11.09-6.86l2.62,1.31c6.8,3.4,11.09,10.35,11.09,17.95h0Z"/>
  </g>
</svg>