<?xml version="1.0" encoding="UTF-8"?>
<svg id="Layer_1" data-name="Layer 1" xmlns="http://www.w3.org/2000/svg" viewBox="0 0 575 825">
  <defs>
    <style>
      .cls-1 {
        fill: #fff;
      }

      .cls-2 {
        stroke: #fff;
      }

      .cls-2, .cls-3 {
        fill: none;
        stroke-miterlimit: 10;
        stroke-width: 10px;
      }

      .cls-4 {
        fill: #e8d023;
      }

      .cls-3 {
        stroke: #e8d023;
      }
    </style>
  </defs>
  <rect x="-1.53" y="0" width="575" height="825"/>
  <path class="cls-1" d="M523.47,50V775H48.47V50h475m10-10H38.47V785h495V40h0Z"/>
  <line class="cls-2" x1="473.47" y1="50" x2="473.47" y2="775"/>
  <line class="cls-2" x1="98.47" y1="50" x2="98.47" y2="775"/>
  <line class="cls-2" x1="48.47" y1="700" x2="523.47" y2="700"/>
  <line class="cls-2" x1="523.47" y1="125" x2="48.47" y2="125"/>
  <line class="cls-2" x1="298.47" y1="125" x2="298.47" y2="700"/>
  <line class="cls-3" x1="23.47" y1="400" x2="548.47" y2="400"/>
  <path class="cls-1" d="M114.88,212.99h11.33v-45.59h14.52v45.59h12.78v13.07h-12.78l.29,115.87,12.49-.29v15.68h-5.81c-15.97,0-21.78-4.07-21.78-25.56l.29-105.71h-11.33v-13.07Z"/>
  <path class="cls-1" d="M157.57,237.67c0-17.13,12.2-25.85,24.39-25.85s24.39,8.71,24.39,26.14v45.88h-33.4v47.63c0,8.13,4.94,12.2,9.58,12.2,4.94,0,9.58-4.07,9.58-12.2v-34.27h14.23v34.27c0,17.42-12.2,26.14-24.39,26.14s-24.39-8.71-24.39-25.85v-94.09Zm34.27,33.98v-45.3h-18.88v45.3h18.88Z"/>
  <path class="cls-1" d="M231.33,356.74h-15.39V212.99h15.39v11.03h1.74c.29-4.94,4.65-11.91,14.52-11.91,14.81,0,17.42,13.94,17.42,25.85v118.78h-15.39v-118.49c0-5.52-1.74-13.07-8.71-13.07-8.42,0-9.58,7.55-9.58,13.65v117.9Z"/>
  <g>
    <path class="cls-4" d="M114.88,495.4h11.33v-45.59h14.52v45.59h12.78v13.07h-12.78l.29,115.87,12.49-.29v15.68h-5.81c-15.97,0-21.78-4.07-21.78-25.56l.29-105.71h-11.33v-13.07Z"/>
    <path class="cls-4" d="M157.57,520.09c0-17.13,12.2-25.85,24.39-25.85s24.39,8.71,24.39,26.14v45.88h-33.4v47.63c0,8.13,4.94,12.2,9.58,12.2,4.94,0,9.58-4.07,9.58-12.2v-34.27h14.23v34.27c0,17.42-12.2,26.14-24.39,26.14s-24.39-8.71-24.39-25.85v-94.09Zm34.27,33.98v-45.3h-18.88v45.3h18.88Z"/>
    <path class="cls-4" d="M231.33,639.15h-15.39v-143.75h15.39v11.03h1.74c.29-4.94,4.65-11.91,14.52-11.91,14.81,0,17.42,13.94,17.42,25.85v118.78h-15.39v-118.49c0-5.52-1.74-13.07-8.71-13.07-8.42,0-9.58,7.55-9.58,13.65v117.9Z"/>
  </g>
  <path class="cls-1" d="M335,639.15h-15.39v-143.75h15.39v11.03h1.74c.29-4.94,4.65-11.91,14.52-11.91,14.81,0,17.42,13.94,17.42,25.85v118.78h-15.39v-118.49c0-5.52-1.74-13.07-8.71-13.07-8.42,0-9.58,7.55-9.58,13.65v117.9Z"/>
  <path class="cls-1" d="M395.98,483.5h-15.39v-23.52h15.39v23.52Zm0,155.66h-14.81v-143.75h14.81v143.75Z"/>
  <path class="cls-1" d="M417.48,624.63h19.46v-23.81c0-22.94-33.4-34.85-33.4-63.02v-17.42c0-17.42,12.2-26.14,24.39-26.14s24.39,8.71,24.39,26.14v31.36h-14.52v-43.56h-18.88v24.68c0,26.14,33.4,34.27,33.4,64.18v17.42c-.29,17.13-12.49,25.56-24.68,25.56s-24.68-8.71-24.68-26.14v-34.27h14.52v45.01Z"/>
  <g>
    <path class="cls-4" d="M335,356.45h-15.39V212.7h15.39v11.03h1.74c.29-4.94,4.65-11.91,14.52-11.91,14.81,0,17.42,13.94,17.42,25.85v118.78h-15.39v-118.49c0-5.52-1.74-13.07-8.71-13.07-8.42,0-9.58,7.55-9.58,13.65v117.9Z"/>
    <path class="cls-4" d="M395.98,200.79h-15.39v-23.52h15.39v23.52Zm0,155.66h-14.81V212.7h14.81v143.75Z"/>
    <path class="cls-4" d="M417.48,341.93h19.46v-23.81c0-22.94-33.4-34.85-33.4-63.02v-17.42c0-17.42,12.2-26.14,24.39-26.14s24.39,8.71,24.39,26.14v31.36h-14.52v-43.56h-18.88v24.68c0,26.14,33.4,34.27,33.4,64.18v17.42c-.29,17.13-12.49,25.56-24.68,25.56s-24.68-8.71-24.68-26.14v-34.27h14.52v45.01Z"/>
  </g>
</svg>