<?xml version="1.0" encoding="UTF-8"?>
<svg id="Layer_1" data-name="Layer 1" xmlns="http://www.w3.org/2000/svg" viewBox="0 0 575 825">
  <defs>
    <style>
      .cls-1 {
        fill: #fff;
      }

      .cls-2 {
        stroke: #000;
      }

      .cls-2, .cls-3 {
        fill: none;
        stroke-miterlimit: 10;
        stroke-width: 10px;
      }

      .cls-3 {
        stroke: #fff;
      }

      .cls-4 {
        fill: #ea822d;
      }
    </style>
  </defs>
  <rect class="cls-4" width="575" height="825"/>
  <path class="cls-1" d="M525,50V775H50V50h475m10-10H40V785h495V40h0Z"/>
  <line class="cls-3" x1="475" y1="50" x2="475" y2="775"/>
  <line class="cls-3" x1="100" y1="50" x2="100" y2="775"/>
  <line class="cls-3" x1="50" y1="700" x2="525" y2="700"/>
  <line class="cls-3" x1="525" y1="125" x2="50" y2="125"/>
  <line class="cls-3" x1="300" y1="125" x2="300" y2="700"/>
  <line class="cls-2" x1="25" y1="400" x2="550" y2="400"/>
  <path class="cls-1" d="M116.41,212.99h11.33v-45.59h14.52v45.59h12.78v13.07h-12.78l.29,115.87,12.49-.29v15.68h-5.81c-15.97,0-21.78-4.07-21.78-25.56l.29-105.71h-11.33v-13.07Z"/>
  <path class="cls-1" d="M159.1,237.67c0-17.13,12.2-25.85,24.39-25.85s24.39,8.71,24.39,26.14v45.88h-33.4v47.63c0,8.13,4.94,12.2,9.58,12.2,4.94,0,9.58-4.07,9.58-12.2v-34.27h14.23v34.27c0,17.42-12.2,26.14-24.39,26.14s-24.39-8.71-24.39-25.85v-94.09Zm34.27,33.98v-45.3h-18.88v45.3h18.88Z"/>
  <path class="cls-1" d="M232.86,356.74h-15.39V212.99h15.39v11.03h1.74c.29-4.94,4.65-11.91,14.52-11.91,14.81,0,17.42,13.94,17.42,25.85v118.78h-15.39v-118.49c0-5.52-1.74-13.07-8.71-13.07-8.42,0-9.58,7.55-9.58,13.65v117.9Z"/>
  <g>
    <path d="M116.41,495.4h11.33v-45.59h14.52v45.59h12.78v13.07h-12.78l.29,115.87,12.49-.29v15.68h-5.81c-15.97,0-21.78-4.07-21.78-25.56l.29-105.71h-11.33v-13.07Z"/>
    <path d="M159.1,520.09c0-17.13,12.2-25.85,24.39-25.85s24.39,8.71,24.39,26.14v45.88h-33.4v47.63c0,8.13,4.94,12.2,9.58,12.2,4.94,0,9.58-4.07,9.58-12.2v-34.27h14.23v34.27c0,17.42-12.2,26.14-24.39,26.14s-24.39-8.71-24.39-25.85v-94.09Zm34.27,33.98v-45.3h-18.88v45.3h18.88Z"/>
    <path d="M232.86,639.15h-15.39v-143.75h15.39v11.03h1.74c.29-4.94,4.65-11.91,14.52-11.91,14.81,0,17.42,13.94,17.42,25.85v118.78h-15.39v-118.49c0-5.52-1.74-13.07-8.71-13.07-8.42,0-9.58,7.55-9.58,13.65v117.9Z"/>
  </g>
  <path class="cls-1" d="M336.54,639.15h-15.39v-143.75h15.39v11.03h1.74c.29-4.94,4.65-11.91,14.52-11.91,14.81,0,17.42,13.94,17.42,25.85v118.78h-15.39v-118.49c0-5.52-1.74-13.07-8.71-13.07-8.42,0-9.58,7.55-9.58,13.65v117.9Z"/>
  <path class="cls-1" d="M397.51,483.5h-15.39v-23.52h15.39v23.52Zm0,155.66h-14.81v-143.75h14.81v143.75Z"/>
  <path class="cls-1" d="M419.01,624.63h19.46v-23.81c0-22.94-33.4-34.85-33.4-63.02v-17.42c0-17.42,12.2-26.14,24.39-26.14s24.39,8.71,24.39,26.14v31.36h-14.52v-43.56h-18.88v24.68c0,26.14,33.4,34.27,33.4,64.18v17.42c-.29,17.13-12.49,25.56-24.68,25.56s-24.68-8.71-24.68-26.14v-34.27h14.52v45.01Z"/>
  <g>
    <path d="M336.54,356.45h-15.39V212.7h15.39v11.03h1.74c.29-4.94,4.65-11.91,14.52-11.91,14.81,0,17.42,13.94,17.42,25.85v118.78h-15.39v-118.49c0-5.52-1.74-13.07-8.71-13.07-8.42,0-9.58,7.55-9.58,13.65v117.9Z"/>
    <path d="M397.51,200.79h-15.39v-23.52h15.39v23.52Zm0,155.66h-14.81V212.7h14.81v143.75Z"/>
    <path d="M419.01,341.93h19.46v-23.81c0-22.94-33.4-34.85-33.4-63.02v-17.42c0-17.42,12.2-26.14,24.39-26.14s24.39,8.71,24.39,26.14v31.36h-14.52v-43.56h-18.88v24.68c0,26.14,33.4,34.27,33.4,64.18v17.42c-.29,17.13-12.49,25.56-24.68,25.56s-24.68-8.71-24.68-26.14v-34.27h14.52v45.01Z"/>
  </g>
</svg>